<svg width="35" height="50" viewBox="0 0 35 50" fill="none" xmlns="http://www.w3.org/2000/svg">
<path d="M34.0481 27.9385C33.9729 27.3493 33.734 26.7933 33.3588 26.334C32.9836 25.8747 32.4873 25.5306 31.9265 25.3412L31.467 25.1832C31.1398 25.0856 30.8167 24.9726 30.5069 24.8477L19.509 21.003C19.3796 20.9588 19.2516 20.9075 19.13 20.8521C18.0474 20.367 17.2943 19.5232 17.009 18.4773C16.702 17.3506 16.9649 16.118 17.7495 15.0067L28.3398 0L1.36983 18.9364C0.885517 19.2763 0.50415 19.7439 0.26779 20.2876C0.0314305 20.8314 -0.0507392 21.43 0.0303442 22.0176C0.111428 22.6053 0.352614 23.159 0.727301 23.6177C1.10199 24.0765 1.59562 24.4224 2.15374 24.6174L2.28941 24.6652C2.85823 24.8153 3.41447 25.0098 3.95304 25.2471L14.6356 28.9802C14.7621 29.0237 14.8894 29.0742 15.0104 29.129C16.0929 29.6127 16.8481 30.4557 17.1349 31.5031C17.4433 32.6304 17.1803 33.8645 16.395 34.9771L5.7922 49.9993L32.7153 31.0201C33.2031 30.6837 33.5867 30.2163 33.8224 29.6713C34.0581 29.1264 34.1363 28.5259 34.0481 27.9385Z" fill="#0FAE79"/>
</svg>
